<?xml version="1.0" encoding="iso-8859-1"?>
<!-- Generator: Adobe Illustrator 19.0.0, SVG Export Plug-In . SVG Version: 6.00 Build 0)  -->
<svg xmlns="http://www.w3.org/2000/svg" xmlns:xlink="http://www.w3.org/1999/xlink" version="1.1" id="Capa_1" x="0px" y="0px" viewBox="0 0 512 512" style="enable-background:new 0 0 512 512;" xml:space="preserve" width="512px" height="512px">
<g>
	<g>
		<g>
			<path d="M509.501,113.432c-1.6-1.6-3.771-2.499-6.035-2.499c-2.263-0.001-4.434,0.898-6.035,2.499     c-1.6,1.6-2.499,3.771-2.499,6.035V153.6H307.2v51.2h119.467v59.758c-0.016,9.415-7.652,17.04-17.067,17.042     c-18.843,0.02-34.113,15.29-34.133,34.133v59.733c-0.038,32.974-26.759,59.695-59.733,59.733     c-33.642,0-59.733-36.7-59.733-68.267h7.533L248.363,230.4H179.2v59.733c0.015,14.132,11.468,25.585,25.6,25.6h25.6v51.2h8.533     v8.533c-0.002,1.42,0.352,2.818,1.029,4.067c5.888,36.525,36.363,72.733,75.771,72.733c42.396-0.048,76.752-34.404,76.8-76.8     v-59.733c0.011-9.421,7.646-17.056,17.067-17.067c18.836-0.014,34.105-15.273,34.133-34.108V204.8h51.2v34.133     c0,4.713,3.82,8.533,8.533,8.533s8.533-3.82,8.533-8.533V119.467C512.001,117.203,511.102,115.032,509.501,113.432z      M230.4,298.667h-25.6c-4.711-0.005-8.529-3.823-8.533-8.533v-17.067h25.6c2.263-0.001,4.434,0.898,6.035,2.499     c1.6,1.6,2.499,3.771,2.499,6.035V298.667z" fill="#4ba808"/>
			<path d="M93.867,366.933h17.067v-93.867c-0.001-2.263,0.898-4.434,2.499-6.035c1.6-1.6,3.771-2.499,6.035-2.499V230.4h-25.6     V366.933z" fill="#4ba808"/>
			<path d="M93.867,145.067h-76.8v-34.133c0-4.713-3.82-8.533-8.533-8.533S0,106.221,0,110.933v136.533C0,252.18,3.82,256,8.533,256     s8.533-3.82,8.533-8.533v-34.133h76.8V145.067z" fill="#4ba808"/>
			<polygon points="290.133,213.333 290.133,145.067 256,145.067 256,93.867 264.542,93.867 264.533,59.733 230.4,59.733      230.4,93.867 238.933,93.867 238.933,145.067 136.533,145.067 136.533,93.867 145.067,93.867 145.067,59.733 110.933,59.733      110.933,93.867 119.467,93.867 119.467,145.067 110.933,145.067 110.933,213.333 128,213.333 170.667,213.333 256,213.333    " fill="#4ba808"/>
			<rect x="162.133" y="68.267" width="51.2" height="17.067" fill="#4ba808"/>
		</g>
	</g>
</g>
<g>
</g>
<g>
</g>
<g>
</g>
<g>
</g>
<g>
</g>
<g>
</g>
<g>
</g>
<g>
</g>
<g>
</g>
<g>
</g>
<g>
</g>
<g>
</g>
<g>
</g>
<g>
</g>
<g>
</g>
</svg>
